<?xml version="1.0" standalone="no"?>
<!DOCTYPE svg PUBLIC "-//W3C//DTD SVG 20010904//EN"
 "http://www.w3.org/TR/2001/REC-SVG-20010904/DTD/svg10.dtd">
<svg version="1.0" xmlns="http://www.w3.org/2000/svg"
 width="200.000000pt" height="200.000000pt" viewBox="0 0 200.000000 200.000000"
 preserveAspectRatio="xMidYMid meet">
<metadata>
Created by potrace 1.11, written by Peter Selinger 2001-2013
</metadata>
<g transform="translate(0.000000,200.000000) scale(0.100000,-0.100000)"
fill="#000000" stroke="none">
<path d="M1270 1955 c-87 -19 -145 -42 -205 -80 -192 -122 -233 -358 -86 -502
36 -37 40 -44 32 -70 -5 -15 -13 -50 -17 -78 -4 -27 -8 -53 -10 -57 -1 -5 -2
-25 -3 -45 l-1 -38 -25 27 c-21 23 -25 36 -24 93 1 56 -3 73 -28 113 -65 105
-250 150 -438 108 -131 -30 -148 -46 -101 -95 14 -15 48 -69 76 -121 85 -157
165 -224 270 -224 64 0 124 27 163 74 l26 30 19 -28 c36 -50 51 -90 50 -125
-1 -32 -4 -36 -37 -42 -72 -12 -100 -26 -121 -59 -17 -29 -29 -35 -82 -46 -58
-11 -125 -37 -116 -45 1 -2 44 -20 93 -40 88 -36 93 -37 235 -39 132 -2 149
-4 183 -24 34 -22 70 -59 92 -96 9 -16 18 -14 98 16 48 18 87 36 87 39 0 4
-20 27 -45 52 -53 54 -126 90 -220 110 -42 9 -69 19 -67 26 1 7 14 29 28 51
l26 39 36 -24 c71 -47 161 -49 250 -8 91 42 252 252 222 288 -7 8 -23 15 -36
15 -12 0 -51 7 -86 15 -164 38 -264 40 -324 6 -61 -34 -88 -83 -90 -164 -2
-59 -7 -73 -34 -110 l-32 -42 6 130 c6 137 10 173 30 270 11 55 14 60 37 57
13 -2 58 -4 99 -5 93 -2 148 21 213 87 59 62 103 149 167 331 29 83 59 159 66
170 19 27 18 51 -3 60 -35 15 -305 14 -373 0z"/>
<path d="M275 720 c-11 -34 3 -40 90 -40 80 0 94 -4 256 -65 l171 -65 128 0
c71 0 136 -3 145 -6 8 -4 22 -19 30 -34 19 -37 3 -88 -32 -101 -13 -5 -104 -9
-201 -9 -97 0 -183 -4 -190 -9 -8 -5 -12 -17 -10 -27 3 -18 16 -19 197 -22
l193 -2 254 95 c140 52 264 95 277 95 36 0 87 -39 87 -68 0 -16 -718 -372
-750 -372 -13 0 -127 33 -254 74 -303 98 -304 98 -351 94 -35 -3 -40 -6 -40
-28 0 -23 5 -26 55 -31 30 -3 127 -30 215 -58 88 -29 202 -66 254 -83 70 -23
104 -29 136 -25 36 5 296 127 694 325 85 43 106 67 98 117 -11 68 -71 115
-146 115 -23 0 -114 -28 -227 -70 -103 -38 -189 -70 -191 -70 -2 0 -1 5 2 10
12 19 -7 71 -37 105 -35 41 -54 45 -218 49 l-125 3 -158 61 c-154 60 -161 62
-252 62 -85 0 -94 -2 -100 -20z"/>
</g>
</svg>
